<svg width="300" height="150" viewBox="0 0 300 150" xmlns="http://www.w3.org/2000/svg">
  <!-- Background (optional - can be removed if transparent is preferred) -->
  <rect width="300" height="150" fill="white"/>
  
  <!-- DPF Text Logo - Centered -->
  <g transform="translate(150, 75)">
    <!-- Letter D -->
    <g transform="translate(-97, 0)">
      <rect x="0" y="-35" width="18" height="70" fill="black"/>
      <path d="M 15 -35 L 40 -35 Q 55 -35 55 -20 L 55 20 Q 55 35 40 35 L 15 35 L 15 20 L 35 20 Q 37 20 37 18 L 37 -18 Q 37 -20 35 -20 L 15 -20 Z" fill="black"/>
    </g>
    
    <!-- Letter P -->
    <g transform="translate(-17, 0)">
      <rect x="0" y="-35" width="18" height="70" fill="black"/>
      <rect x="15" y="-35" width="30" height="18" fill="black"/>
      <rect x="15" y="-8" width="30" height="16" fill="black"/>
      <rect x="42" y="-35" width="18" height="43" fill="black"/>
    </g>
    
    <!-- Letter F -->
    <g transform="translate(63, 0)">
      <rect x="0" y="-35" width="18" height="70" fill="black"/>
      <rect x="15" y="-35" width="40" height="18" fill="black"/>
      <rect x="15" y="-8" width="35" height="16" fill="black"/>
    </g>
  </g>
</svg>